<svg id="visual" viewBox="0 0 900 450" width="900" height="450" xmlns="http://www.w3.org/2000/svg" xmlns:xlink="http://www.w3.org/1999/xlink" version="1.1"><rect x="0" y="0" width="900" height="450" fill="#363325"></rect><path d="M0 317L21.5 322.2C43 327.3 86 337.7 128.8 343.8C171.7 350 214.3 352 257.2 351.3C300 350.7 343 347.3 385.8 338C428.7 328.7 471.3 313.3 514.2 315.8C557 318.3 600 338.7 642.8 344.2C685.7 349.7 728.3 340.3 771.2 338.8C814 337.3 857 343.7 878.5 346.8L900 350L900 451L878.5 451C857 451 814 451 771.2 451C728.3 451 685.7 451 642.8 451C600 451 557 451 514.2 451C471.3 451 428.7 451 385.8 451C343 451 300 451 257.2 451C214.3 451 171.7 451 128.8 451C86 451 43 451 21.5 451L0 451Z" fill="#D6CA94" stroke-linecap="round" stroke-linejoin="miter"></path></svg>